<?xml version='1.0' encoding='utf-8'?>
<svg xmlns="http://www.w3.org/2000/svg" width="338.67mm" height="225.78mm" version="1.1" viewBox="0 0 1200 800"> <g transform="translate(460 -95.219)"> <rect x="-460" y="95.219" width="1200" height="800" fill="rgba(255,255,255,0)" fill-rule="evenodd"/> <g transform="matrix(1.0673 0 0 1.0673 -511.06 -198.03)"> <g transform="matrix(.99257 0 0 .99257 1.7136 2.5706)" fill-rule="evenodd"> <path d="m443.87 957.62h337.97c1.8336 0 3.9942-1.6086 3.3097-3.3093l-16.541-41.076c-0.68477-1.7007-7.6789-3.3093-9.5122-3.3093h-292.49c-1.8336 0-8.8274 1.6087-9.5125 3.3093l-16.541 41.076c-0.68506 1.7007 1.4758 3.3093 3.3091 3.3093z" fill="#1a1a1a"/> <path d="m585.51 813.27h54.704v105.32c-17.146 7.1292-34.973 8.2162-54.704 0z" fill="#333"/> <path d="m635.12 813.27h5.0897v104.64c-1.0073 1.2514-3.0223 2.8961-5.1362 2.9162z" fill="#212121"/> <rect transform="scale(1,-1)" x="230.77" y="-858.37" width="764.17" height="472.28" ry="32.75" fill="#fff"/> <rect x="244.56" y="358.98" width="736.1" height="438.7" fill="#ff8a65"/> <rect x="309.27" y="372.49" width="607.18" height="425.18" fill="#f9f9f9"/> <rect x="471.37" y="372.49" width="6.9282" height="425.18" fill="#ccc"/> <rect x="523.19" y="649.14" width="297.91" height="156.28" ry="2.1234" fill="#c8e6c9"/> <path d="m230.66 346.02v471.85h764.4v-471.85h-764.4zm18.018 24.384h725.04v421.12h-725.04v-421.12z" fill="#4d4d4d"/> <path d="m443.87 957.62h337.97c1.8336 0 3.9942-0.3358 3.3097-0.69079l-16.541-8.5746c-0.68477-0.35501-7.6789-0.69081-9.5122-0.69081h-292.49c-1.8336 0-8.8274 0.3358-9.5125 0.69081l-16.541 8.5746c-0.68506 0.35499 1.4758 0.69079 3.3091 0.69079z" fill="#424242"/> <rect x="523.19" y="474.41" width="297.91" height="156.28" ry="2.1234" fill="#c8e6c9"/> <rect x="309.27" y="370.61" width="607.18" height="79.175" fill="#66bb6a"/> <rect x="330.71" y="475.17" width="117.01" height="42.185" fill="#c8e6c9"/> <rect x="330.71" y="475.17" width="117.01" height="17.719" fill="#66bb6a"/> <rect x="330.71" y="530.48" width="117.01" height="51.227" fill="#c8e6c9"/> <rect x="330.71" y="527.82" width="117.01" height="17.719" fill="#66bb6a"/> <rect x="330.71" y="600.16" width="117.01" height="73.034" fill="#c8e6c9"/> <rect x="330.71" y="592.88" width="117.01" height="17.719" fill="#66bb6a"/> <rect x="330.71" y="693.77" width="117.01" height="73.034" fill="#c8e6c9"/> <rect x="330.71" y="684.27" width="117.01" height="17.719" fill="#66bb6a"/> <rect x="510.47" y="487.95" width="284.04" height="26.745" fill="#66bb6a"/> <rect x="826.98" y="477.76" width="13.539" height="13.539" ry="2.8207" fill="#5c6bc0"/> <rect x="826.98" y="494.87" width="13.539" height="13.539" ry="2.8207" fill="#4dd0e1"/> <rect x="826.98" y="511.42" width="13.539" height="13.539" ry="2.8207" fill="#ff7043"/> <rect x="826.98" y="655.94" width="13.539" height="13.539" ry="2.8207" fill="#5c6bc0"/> <rect x="826.98" y="673.05" width="13.539" height="13.539" ry="2.8207" fill="#4dd0e1"/> <rect x="826.98" y="689.6" width="13.539" height="13.539" ry="2.8207" fill="#ff7043"/> <rect x="540.34" y="530.36" width="91.237" height="69.672" fill="#e8f5e9"/> <path d="m613.33 550.29-37.326 20.321-17.418-11.612-18.248 13.608v27.424h91.24v-36.251l-18.248-13.49z" fill="#66bb6a"/> <rect x="643.43" y="531.28" width="151.28" height="8.6879" fill="#66bb6a"/> <rect x="643.43" y="546.49" width="151.28" height="8.6879" fill="#66bb6a"/> <rect x="643.43" y="560.74" width="151.28" height="8.6879" fill="#66bb6a"/> <rect x="643.43" y="575.95" width="111.36" height="8.6879" fill="#66bb6a"/> <rect x="510.47" y="662.68" width="284.04" height="26.745" fill="#66bb6a"/> <rect x="540.34" y="705.08" width="91.237" height="69.672" fill="#e8f5e9"/> <path d="m613.33 725.01-37.326 20.321-17.418-11.612-18.248 13.608v27.424h91.24v-36.251l-18.248-13.49z" fill="#66bb6a"/> <rect x="643.43" y="706" width="151.28" height="8.6879" fill="#66bb6a"/> <rect x="643.43" y="721.21" width="151.28" height="8.6879" fill="#66bb6a"/> <rect x="643.43" y="735.47" width="151.28" height="8.6879" fill="#66bb6a"/> <rect x="643.43" y="750.67" width="111.36" height="8.6879" fill="#66bb6a"/> </g> </g> </g> </svg>